<svg width="24" height="25" viewBox="0 0 24 25" fill="none" xmlns="http://www.w3.org/2000/svg">
<path d="M11.9948 6.32999L14.4548 8.78999C14.8448 9.17999 15.4748 9.17999 15.8648 8.78999C16.2548 8.39999 16.2548 7.76999 15.8648 7.37999L12.6948 4.19999C12.6023 4.10727 12.4924 4.03371 12.3714 3.98352C12.2504 3.93334 12.1207 3.9075 11.9898 3.9075C11.8588 3.9075 11.7291 3.93334 11.6081 3.98352C11.4872 4.03371 11.3773 4.10727 11.2848 4.19999L8.11477 7.37999C7.72477 7.76999 7.72477 8.39999 8.11477 8.78999C8.50477 9.17999 9.13477 9.17999 9.52477 8.78999L11.9948 6.32999ZM11.9948 18.67L9.53477 16.21C9.44226 16.1173 9.33237 16.0437 9.2114 15.9935C9.09042 15.9433 8.96074 15.9175 8.82977 15.9175C8.69879 15.9175 8.56911 15.9433 8.44813 15.9935C8.32716 16.0437 8.21727 16.1173 8.12477 16.21C7.73477 16.6 7.73477 17.23 8.12477 17.62L11.2948 20.8C11.6848 21.19 12.3148 21.19 12.7048 20.8L15.8748 17.63C16.2648 17.24 16.2648 16.61 15.8748 16.22C15.7823 16.1273 15.6724 16.0537 15.5514 16.0035C15.4304 15.9533 15.3007 15.9275 15.1698 15.9275C15.0388 15.9275 14.9091 15.9533 14.7881 16.0035C14.6672 16.0537 14.5573 16.1273 14.4648 16.22L11.9948 18.67Z" fill="#384250"/>
</svg>
