<svg width="160" height="40" viewBox="0 0 160 40" fill="none" xmlns="http://www.w3.org/2000/svg">
<path d="M0 10C0 4.47715 4.47715 0 10 0H30C35.5228 0 40 4.47715 40 10V30C40 35.5228 35.5228 40 30 40H10C4.47715 40 0 35.5228 0 30V10Z" fill="#6938EF"/>
<g clip-path="url(#clip0_22_8609)">
<path d="M21.4141 21.414C22.1951 20.633 22.1951 19.367 21.4141 18.585C21.0241 18.195 20.5121 18 20.0001 18C19.4881 18 18.9761 18.195 18.5861 18.586C17.8051 19.367 17.8051 20.634 18.5861 21.415C18.9761 21.805 19.4881 22 20.0001 22C20.5121 22 21.0241 21.805 21.4141 21.414ZM19.9981 27.002C21.8691 27.002 23.6281 26.274 24.9501 24.95C26.2731 23.627 27.0021 21.869 27.0021 19.998C27.0021 18.127 26.2731 16.368 24.9501 15.045C23.1811 13.275 20.5771 12.586 18.1571 13.243C17.3581 13.461 16.8851 14.286 17.1031 15.085C17.3191 15.885 18.1451 16.359 18.9451 16.14C20.3301 15.765 21.8171 16.158 22.8281 17.167C23.5841 17.925 24.0001 18.93 24.0001 19.999C24.0001 21.068 23.5841 22.073 22.8271 22.829C21.3141 24.341 18.6801 24.341 17.1671 22.829C16.1571 21.82 15.7631 20.332 16.1391 18.946C16.3571 18.146 15.8841 17.321 15.0851 17.104C14.2831 16.887 13.4601 17.36 13.2431 18.159C12.5851 20.581 13.2751 23.184 15.0451 24.952C16.3681 26.274 18.1271 27.002 19.9981 27.002ZM28.4891 11.508C25.4561 8.47498 20.9911 7.29098 16.8421 8.42098C16.0421 8.63798 15.5701 9.46298 15.7881 10.263C16.0061 11.063 16.8281 11.536 17.6301 11.317C20.7471 10.472 24.0931 11.358 26.3671 13.63C29.8781 17.141 29.8781 22.854 26.3671 26.366C22.8551 29.877 17.1421 29.877 13.6301 26.366C11.3561 24.093 10.4711 20.745 11.3171 17.629C11.5351 16.829 11.0621 16.004 10.2631 15.787C9.46008 15.569 8.63808 16.043 8.42008 16.842C7.29108 20.994 8.47508 25.457 11.5071 28.489C13.8481 30.829 16.9231 32 19.9981 32C23.0731 32 26.1481 30.829 28.4891 28.489C33.1701 23.807 33.1701 16.19 28.4891 11.508Z" fill="white"/>
</g>
<path d="M154.188 29.2634C152.877 29.2634 151.745 28.9911 150.792 28.4464C149.844 27.8961 149.115 27.1188 148.605 26.1146C148.094 25.1047 147.839 23.9161 147.839 22.5488C147.839 21.2042 148.094 20.0241 148.605 19.0085C149.121 17.9873 149.842 17.193 150.766 16.6257C151.691 16.0526 152.778 15.7661 154.026 15.7661C154.831 15.7661 155.592 15.8966 156.307 16.1576C157.027 16.4129 157.663 16.81 158.213 17.349C158.769 17.888 159.206 18.5745 159.523 19.4085C159.841 20.2369 160 21.224 160 22.3701V23.3147H149.286V21.2382H157.047C157.041 20.6482 156.914 20.1234 156.664 19.6638C156.414 19.1986 156.065 18.8327 155.617 18.566C155.175 18.2993 154.658 18.166 154.068 18.166C153.439 18.166 152.885 18.3192 152.409 18.6256C151.932 18.9263 151.561 19.3234 151.294 19.817C151.033 20.3049 150.9 20.8411 150.894 21.4255V23.2381C150.894 23.9984 151.033 24.6509 151.311 25.1955C151.589 25.7345 151.978 26.1487 152.477 26.438C152.976 26.7217 153.561 26.8635 154.23 26.8635C154.678 26.8635 155.084 26.8011 155.447 26.6763C155.81 26.5458 156.125 26.3558 156.392 26.1061C156.658 25.8565 156.86 25.5473 156.996 25.1785L159.872 25.5019C159.691 26.2621 159.345 26.9259 158.834 27.4933C158.329 28.055 157.682 28.4918 156.894 28.8039C156.105 29.1102 155.203 29.2634 154.188 29.2634Z" fill="#111927"/>
<path d="M146.713 15.9363L142.058 29.0081H138.654L133.999 15.9363H137.284L140.288 25.6466H140.424L143.437 15.9363H146.713Z" fill="#111927"/>
<path d="M128.788 29.0081V15.9363H131.869V29.0081H128.788ZM130.337 14.0811C129.849 14.0811 129.43 13.9194 129.078 13.596C128.726 13.2669 128.55 12.8726 128.55 12.4131C128.55 11.9478 128.726 11.5535 129.078 11.2301C129.43 10.9011 129.849 10.7365 130.337 10.7365C130.831 10.7365 131.251 10.9011 131.597 11.2301C131.949 11.5535 132.124 11.9478 132.124 12.4131C132.124 12.8726 131.949 13.2669 131.597 13.596C131.251 13.9194 130.831 14.0811 130.337 14.0811Z" fill="#111927"/>
<path d="M126.212 15.9363V18.3192H118.697V15.9363H126.212ZM120.553 12.8045H123.633V25.0764C123.633 25.4905 123.696 25.8083 123.821 26.0295C123.951 26.2451 124.121 26.3926 124.331 26.4721C124.541 26.5515 124.774 26.5912 125.029 26.5912C125.222 26.5912 125.398 26.577 125.557 26.5487C125.721 26.5203 125.846 26.4948 125.931 26.4721L126.45 28.8805C126.286 28.9372 126.05 28.9996 125.744 29.0677C125.443 29.1358 125.074 29.1755 124.638 29.1868C123.866 29.2095 123.171 29.0932 122.553 28.8379C121.934 28.5769 121.443 28.1741 121.08 27.6295C120.723 27.0848 120.547 26.404 120.553 25.587V12.8045Z" fill="#111927"/>
<path d="M108.162 21.3489V29.0081H105.081V15.9363H108.025V18.1575H108.179C108.479 17.4256 108.959 16.8441 109.617 16.4129C110.281 15.9817 111.101 15.7661 112.076 15.7661C112.978 15.7661 113.764 15.959 114.434 16.3448C115.109 16.7306 115.631 17.2895 116 18.0213C116.374 18.7532 116.558 19.6411 116.553 20.6851V29.0081H113.472V21.1616C113.472 20.2879 113.245 19.6043 112.791 19.1107C112.343 18.6171 111.722 18.3703 110.928 18.3703C110.389 18.3703 109.909 18.4894 109.489 18.7277C109.075 18.9603 108.749 19.2979 108.511 19.7404C108.278 20.183 108.162 20.7191 108.162 21.3489Z" fill="#111927"/>
<path d="M96.6622 29.2634C95.3516 29.2634 94.2197 28.9911 93.2665 28.4464C92.3191 27.8961 91.59 27.1188 91.0794 26.1146C90.5688 25.1047 90.3135 23.9161 90.3135 22.5488C90.3135 21.2042 90.5688 20.0241 91.0794 19.0085C91.5957 17.9873 92.3162 17.193 93.241 16.6257C94.1658 16.0526 95.2523 15.7661 96.5005 15.7661C97.3061 15.7661 98.0664 15.8966 98.7812 16.1576C99.5018 16.4129 100.137 16.81 100.688 17.349C101.244 17.888 101.68 18.5745 101.998 19.4085C102.316 20.2369 102.475 21.224 102.475 22.3701V23.3147H91.7602V21.2382H99.5216C99.5159 20.6482 99.3883 20.1234 99.1386 19.6638C98.889 19.1986 98.5401 18.8327 98.0919 18.566C97.6493 18.2993 97.1331 18.166 96.543 18.166C95.9132 18.166 95.3601 18.3192 94.8835 18.6256C94.4069 18.9263 94.0353 19.3234 93.7687 19.817C93.5077 20.3049 93.3743 20.8411 93.3687 21.4255V23.2381C93.3687 23.9984 93.5077 24.6509 93.7857 25.1955C94.0637 25.7345 94.4523 26.1487 94.9516 26.438C95.4509 26.7217 96.0352 26.8635 96.7047 26.8635C97.1529 26.8635 97.5586 26.8011 97.9217 26.6763C98.2848 26.5458 98.5997 26.3558 98.8663 26.1061C99.133 25.8565 99.3344 25.5473 99.4705 25.1785L102.347 25.5019C102.165 26.2621 101.819 26.9259 101.309 27.4933C100.804 28.055 100.157 28.4918 99.3684 28.8039C98.5798 29.1102 97.6777 29.2634 96.6622 29.2634Z" fill="#111927"/>
<path d="M82.7458 29.2634C81.4408 29.2634 80.3203 28.9769 79.3842 28.4039C78.4537 27.8309 77.736 27.0394 77.2311 26.0295C76.7318 25.014 76.4822 23.8452 76.4822 22.5233C76.4822 21.1957 76.7375 20.0241 77.2481 19.0085C77.7587 17.9873 78.4793 17.193 79.4097 16.6257C80.3458 16.0526 81.4522 15.7661 82.7287 15.7661C83.7897 15.7661 84.7286 15.9619 85.5456 16.3533C86.3683 16.7391 87.0236 17.2866 87.5115 17.9958C87.9994 18.6993 88.2774 19.522 88.3455 20.4638H85.401C85.2818 19.834 84.9981 19.3092 84.5499 18.8894C84.1074 18.4639 83.5145 18.2511 82.7713 18.2511C82.1415 18.2511 81.5884 18.4213 81.1118 18.7617C80.6352 19.0965 80.2636 19.5787 79.9969 20.2085C79.7359 20.8382 79.6055 21.5928 79.6055 22.4722C79.6055 23.363 79.7359 24.1289 79.9969 24.77C80.2579 25.4054 80.6239 25.8962 81.0948 26.2423C81.5713 26.5827 82.1302 26.7529 82.7713 26.7529C83.2252 26.7529 83.6308 26.6678 83.9883 26.4976C84.3514 26.3217 84.6549 26.0692 84.8989 25.7402C85.1428 25.4111 85.3102 25.0111 85.401 24.5402H88.3455C88.2718 25.465 87.9994 26.2848 87.5285 26.9997C87.0576 27.7089 86.4165 28.2649 85.6052 28.6677C84.7939 29.0649 83.8407 29.2634 82.7458 29.2634Z" fill="#111927"/>
<path d="M65.5209 21.3489V29.0081H62.4402V15.9363H65.3847V18.1575H65.5379C65.8386 17.4256 66.318 16.8441 66.9762 16.4129C67.64 15.9817 68.4598 15.7661 69.4356 15.7661C70.3377 15.7661 71.1235 15.959 71.793 16.3448C72.4681 16.7306 72.9901 17.2895 73.3589 18.0213C73.7333 18.7532 73.9177 19.6411 73.9121 20.6851V29.0081H70.8313V21.1616C70.8313 20.2879 70.6044 19.6043 70.1505 19.1107C69.7023 18.6171 69.081 18.3703 68.2868 18.3703C67.7478 18.3703 67.2684 18.4894 66.8485 18.7277C66.4343 18.9603 66.1081 19.2979 65.8698 19.7404C65.6372 20.183 65.5209 20.7191 65.5209 21.3489Z" fill="#111927"/>
<path d="M59.1573 11.5791V29.0081H56V11.5791H59.1573Z" fill="#111927"/>
<defs>
<clipPath id="clip0_22_8609">
<rect width="24" height="24" fill="white" transform="translate(8 8)"/>
</clipPath>
</defs>
</svg>
